<svg xmlns="http://www.w3.org/2000/svg" width="600" height="380" viewBox="0 0 600 380">
    <text x="300" y="32" text-anchor="middle" font-size="15" font-weight="bold" fill="#333">Total Score: deob vs raw</text>
    <rect x="50" y="15" width="14" height="14" fill="#4a9eff" rx="2"/><text x="70" y="27" font-size="12" fill="#666">deob</text><rect x="110" y="15" width="14" height="14" fill="#ff6b6b" rx="2"/><text x="130" y="27" font-size="12" fill="#666">raw</text><line x1="50" y1="50" x2="580" y2="50" stroke="#eee" stroke-dasharray="4,4"/><text x="40" y="54" text-anchor="end" font-size="11" fill="#999">1.1</text><line x1="50" y1="120" x2="580" y2="120" stroke="#eee" stroke-dasharray="4,4"/><text x="40" y="124" text-anchor="end" font-size="11" fill="#999">0.8</text><line x1="50" y1="190" x2="580" y2="190" stroke="#eee" stroke-dasharray="4,4"/><text x="40" y="194" text-anchor="end" font-size="11" fill="#999">0.6</text><line x1="50" y1="260" x2="580" y2="260" stroke="#eee" stroke-dasharray="4,4"/><text x="40" y="264" text-anchor="end" font-size="11" fill="#999">0.3</text><line x1="50" y1="330" x2="580" y2="330" stroke="#eee" stroke-dasharray="4,4"/><text x="40" y="334" text-anchor="end" font-size="11" fill="#999">0.0</text><rect x="55" y="104.27536231884054" width="48" height="225.72463768115946" fill="#4a9eff" rx="2"/><text x="79" y="99.27536231884054" text-anchor="middle" font-size="11" fill="#333">0.89</text><rect x="109" y="142.31884057971013" width="48" height="187.68115942028987" fill="#ff6b6b" rx="2"/><text x="133" y="137.31884057971013" text-anchor="middle" font-size="11" fill="#333">0.74</text><text x="103" y="365" text-anchor="middle" font-size="12" fill="#666">A (Easy)</text><rect x="161" y="109.3478260869565" width="48" height="220.6521739130435" fill="#4a9eff" rx="2"/><text x="185" y="104.3478260869565" text-anchor="middle" font-size="11" fill="#333">0.87</text><rect x="215" y="149.92753623188403" width="48" height="180.07246376811597" fill="#ff6b6b" rx="2"/><text x="239" y="144.92753623188403" text-anchor="middle" font-size="11" fill="#333">0.71</text><text x="209" y="365" text-anchor="middle" font-size="12" fill="#666">B (Medium)</text><rect x="267" y="86.52173913043475" width="48" height="243.47826086956525" fill="#4a9eff" rx="2"/><text x="291" y="81.52173913043475" text-anchor="middle" font-size="11" fill="#333">0.96</text><rect x="321" y="86.52173913043475" width="48" height="243.47826086956525" fill="#ff6b6b" rx="2"/><text x="345" y="81.52173913043475" text-anchor="middle" font-size="11" fill="#333">0.96</text><text x="315" y="365" text-anchor="middle" font-size="12" fill="#666">C (Medium)</text><rect x="373" y="111.88405797101444" width="48" height="218.11594202898556" fill="#4a9eff" rx="2"/><text x="397" y="106.88405797101444" text-anchor="middle" font-size="11" fill="#333">0.86</text><rect x="427" y="215.8695652173913" width="48" height="114.1304347826087" fill="#ff6b6b" rx="2"/><text x="451" y="210.8695652173913" text-anchor="middle" font-size="11" fill="#333">0.45</text><text x="421" y="365" text-anchor="middle" font-size="12" fill="#666">D (Hard)</text><rect x="479" y="114.42028985507244" width="48" height="215.57971014492756" fill="#4a9eff" rx="2"/><text x="503" y="109.42028985507244" text-anchor="middle" font-size="11" fill="#333">0.85</text><rect x="533" y="175.28985507246375" width="48" height="154.71014492753625" fill="#ff6b6b" rx="2"/><text x="557" y="170.28985507246375" text-anchor="middle" font-size="11" fill="#333">0.61</text><text x="527" y="365" text-anchor="middle" font-size="12" fill="#666">E (Hard)</text>
  </svg>