<svg xmlns="http://www.w3.org/2000/svg" width="500" height="420" viewBox="0 0 500 420">
    <text x="250" y="30" text-anchor="middle" font-size="14" font-weight="bold" fill="#333">Scenario B</text>
    <polygon points="250,190 272.4975663390289,198.18844449083576 284.4682713554273,218.92231378165744 280.3108891324554,242.5 261.9707050163984,257.88924172750677 238.0292949836016,257.88924172750677 219.68911086754466,242.5 215.53172864457272,218.92231378165744 227.50243366097112,198.18844449083576 " fill="none" stroke="#e0e0e0" stroke-width="1"/><polygon points="250,155 294.99513267805776,171.37688898167153 318.93654271085455,212.84462756331487 310.6217782649107,260 273.9414100327968,290.7784834550136 226.0585899672032,290.7784834550136 189.3782217350893,260 181.06345728914545,212.8446275633149 205.00486732194224,171.37688898167156 " fill="none" stroke="#e0e0e0" stroke-width="1"/><polygon points="250,120 317.49269901708664,144.5653334725073 353.40481406628186,206.7669413449723 340.93266739736606,277.5 285.9121150491952,323.66772518252037 214.08788495080478,323.66772518252037 159.06733260263394,277.50000000000006 146.59518593371814,206.76694134497234 182.50730098291336,144.56533347250732 " fill="none" stroke="#e0e0e0" stroke-width="1"/><polygon points="250,85 339.9902653561155,117.75377796334308 387.8730854217091,200.68925512662975 371.24355652982143,295 297.88282006559365,356.5569669100272 202.11717993440638,356.5569669100272 128.75644347017862,295.00000000000006 112.12691457829087,200.6892551266298 160.00973464388449,117.7537779633431 " fill="none" stroke="#e0e0e0" stroke-width="1"/><line x1="250" y1="225" x2="250" y2="85" stroke="#ddd"/><text x="250" y="60" text-anchor="middle" font-size="11" fill="#666">Purpose</text><line x1="250" y1="225" x2="339.9902653561155" y2="117.75377796334308" stroke="#ddd"/><text x="356.059955598279" y="98.60266688536863" text-anchor="middle" font-size="11" fill="#666">Functions</text><line x1="250" y1="225" x2="387.8730854217091" y2="200.68925512662975" stroke="#ddd"/><text x="412.49327924701436" y="196.3480506849565" text-anchor="middle" font-size="11" fill="#666">Endpoints</text><line x1="250" y1="225" x2="371.24355652982143" y2="295" stroke="#ddd"/><text x="392.8941916244324" y="307.5" text-anchor="middle" font-size="11" fill="#666">Security</text><line x1="250" y1="225" x2="297.88282006559365" y2="356.5569669100272" stroke="#ddd"/><text x="306.4333236487354" y="380.04928242967486" text-anchor="middle" font-size="11" fill="#666">DataFlow</text><line x1="250" y1="225" x2="202.11717993440638" y2="356.5569669100272" stroke="#ddd"/><text x="193.56667635126468" y="380.0492824296749" text-anchor="middle" font-size="11" fill="#666">Vars</text><line x1="250" y1="225" x2="128.75644347017862" y2="295.00000000000006" stroke="#ddd"/><text x="107.10580837556765" y="307.50000000000006" text-anchor="middle" font-size="11" fill="#666">Time</text><line x1="250" y1="225" x2="112.12691457829087" y2="200.6892551266298" stroke="#ddd"/><text x="87.50672075298567" y="196.34805068495655" text-anchor="middle" font-size="11" fill="#666">Entry</text><line x1="250" y1="225" x2="160.00973464388449" y2="117.7537779633431" stroke="#ddd"/><text x="143.94004440172097" y="98.60266688536865" text-anchor="middle" font-size="11" fill="#666">Token</text><polygon points="250,99 339.9902653561155,117.75377796334308 387.8730854217091,200.68925512662975 331.23318287498034,271.9 285.9121150491952,323.66772518252037 202.11717993440638,356.5569669100272 173.61655938621254,269.1 112.12691457829087,200.6892551266298 211.30418589687034,178.88412452423754 " fill="#4a9eff" fill-opacity="0.15" stroke="#4a9eff" stroke-width="2"/><polygon points="250,106 317.49269901708664,144.5653334725073 387.8730854217091,200.68925512662975 290.0103736548411,248.1 283.51797404591554,317.089876837019 202.11717993440638,356.5569669100272 205.13988408396608,250.9 112.12691457829087,200.6892551266298 198.70554874701415,163.86965343910555 " fill="#ff6b6b" fill-opacity="0.15" stroke="#ff6b6b" stroke-width="2"/>
    <rect x="15" y="15" width="14" height="14" fill="#4a9eff" rx="2"/>
    <text x="35" y="27" font-size="12" fill="#666">deob</text>
    <rect x="80" y="15" width="14" height="14" fill="#ff6b6b" rx="2"/>
    <text x="100" y="27" font-size="12" fill="#666">raw</text>
  </svg>