<svg xmlns="http://www.w3.org/2000/svg" width="400" height="300"><text x="200" y="20" text-anchor="middle" font-size="13" font-weight="bold">Scenario C</text><polygon points="200,128 215.55634918610406,134.44365081389594 222,150 215.55634918610406,165.55634918610406 200,172 184.44365081389594,165.55634918610406 178,150 184.44365081389594,134.44365081389594" fill="none" stroke="#ddd" stroke-width="1"/><polygon points="200,106 231.1126983722081,118.88730162779191 244,150 231.1126983722081,181.1126983722081 200,194 168.8873016277919,181.1126983722081 156,150 168.88730162779189,118.88730162779191" fill="none" stroke="#ddd" stroke-width="1"/><polygon points="200,83.99999999999999 246.66904755831214,103.33095244168786 266,150 246.66904755831214,196.66904755831214 200,216 153.33095244168786,196.66904755831214 134,150 153.33095244168786,103.33095244168786" fill="none" stroke="#ddd" stroke-width="1"/><polygon points="200,62 262.2253967444162,87.77460325558383 288,150 262.2253967444162,212.22539674441617 200,238 137.77460325558383,212.22539674441617 112,150 137.7746032555838,87.77460325558383" fill="none" stroke="#ddd" stroke-width="1"/><polygon points="200,40 277.78174593052023,72.21825406947978 310,150 277.78174593052023,227.78174593052023 200,260 122.21825406947978,227.78174593052023 90,150 122.21825406947976,72.21825406947978" fill="none" stroke="#ddd" stroke-width="1"/><polygon points="200,40 277.78174593052023,72.21825406947978 310,150 277.78174593052023,227.78174593052023 200,260 168.32223553759115,181.67776446240885 161.79940486609487,150 122.21825406947976,72.21825406947978" fill="#4CAF50" fill-opacity="0.3" stroke="#4CAF50" stroke-width="2"/><polygon points="200,51 277.78174593052023,72.21825406947978 310,150 270.0035713374682,220.0035713374682 200,260 153.89601853188861,196.10398146811139 128.20059513390513,150 122.21825406947976,72.21825406947978" fill="#FF9800" fill-opacity="0.3" stroke="#FF9800" stroke-width="2"/><text x="200" y="26" text-anchor="middle" font-size="9">Algorithm</text><text x="290.5096679918781" y="63.490332008121925" text-anchor="middle" font-size="9">Key</text><text x="328" y="154" text-anchor="middle" font-size="9">Params</text><text x="290.5096679918781" y="244.50966799187808" text-anchor="middle" font-size="9">Pseudo</text><text x="200" y="282" text-anchor="middle" font-size="9">Result</text><text x="109.49033200812192" y="244.50966799187808" text-anchor="middle" font-size="9">Token</text><text x="72" y="154.00000000000003" text-anchor="middle" font-size="9">Time</text><text x="109.4903320081219" y="63.490332008121925" text-anchor="middle" font-size="9">Entry</text></svg>